<?xml version="1.0" encoding="UTF-8"?>
<!DOCTYPE svg PUBLIC "-//W3C//DTD SVG 1.1//EN" "http://www.w3.org/Graphics/SVG/1.1/DTD/svg11.dtd">
<!-- Creator: CorelDRAW 2018 (64-Bit Evaluation Version) -->
<svg xmlns="http://www.w3.org/2000/svg" xml:space="preserve" width="3.94187in" height="3.94187in" version="1.1" style="shape-rendering:geometricPrecision; text-rendering:geometricPrecision; image-rendering:optimizeQuality; fill-rule:evenodd; clip-rule:evenodd"
viewBox="0 0 1432.04 1432.04"
 xmlns:xlink="http://www.w3.org/1999/xlink">
 <defs>
  <style type="text/css">
   <![CDATA[
    .fil0 {fill:black}
    .fil2 {fill:#322EB5}
    .fil1 {fill:red;fill-rule:nonzero}
    .fil3 {fill:url(#id0)}
   ]]>
  </style>
  <linearGradient id="id0" gradientUnits="userSpaceOnUse" x1="-0" y1="716.02" x2="1432.04" y2="716.02">
   <stop offset="0" style="stop-opacity:1; stop-color:black"/>
   <stop offset="0.670588" style="stop-opacity:1; stop-color:#1A1864"/>
   <stop offset="1" style="stop-opacity:1; stop-color:#3431C8"/>
  </linearGradient>
 </defs>
 <g id="Layer_x0020_1">
  <metadata id="CorelCorpID_0Corel-Layer"/>
  <g id="_2664353161104">
   <path class="fil0" d="M958.11 561c-0.1,0.07 -0.2,0.13 -0.29,0.2 -0.53,0.36 -1.08,0.71 -1.62,1.06 -0.18,0.11 -0.36,0.23 -0.54,0.34 -0.09,0.06 -0.18,0.12 -0.27,0.17l-12.79 7.81 35.1 72.03c3.32,6.82 8.79,18.04 15.94,20.41 2.22,0.74 4.66,0.83 6.97,0.83l3.4 0 0 23.46 -14.51 8.87 -61.86 0 -43.25 -97.3 0 40.71c0,4.55 -0.41,18.12 2.72,21.57 2.64,2.91 10.92,2.7 14.29,2.7l3.4 0 0 23.46 -14.51 8.87 -95.94 0 0 -23.46 14.51 -8.87 3.4 0c1.16,0 2.75,0.01 4.51,-0.05 1.02,-5.23 0.87,-12.23 0.87,-15.69l0 -157.76c0,-4.86 0.32,-17.07 -2.92,-20.84 -2.83,-3.3 -11.01,-3.44 -15.6,-3.43 6.45,11.32 9.49,24.88 9.49,38.98 0,22.3 -5.68,43.26 -21.71,57.05 -2.87,2.57 -5.91,4.8 -9.08,6.74l-14.51 8.87c-17.07,10.43 -37.94,12.25 -57.06,12.4l0 49.46c0,4.78 -0.36,16.63 2.67,20.41 3.37,4.21 15.29,3.86 19.8,3.86l3.4 0 0 23.46 -14.51 8.87 -101.41 0 0 -23.46 14.51 -8.87 3.41 0c1.78,0 3.4,-0.02 4.88,-0.08 0.71,-3.56 0.78,-8.49 0.78,-15.33l0 -158.08c0,-21.91 -0.64,-24.27 -20.18,-24.27l-3.4 0 0 -23.79 14.51 -8.87 91.68 0c21.47,0 45.6,1.85 63.54,16.78 3.15,2.62 5.95,5.55 8.42,8.73l0 -16.64 14.51 -8.87 89.38 0c22.63,0 46.24,1.97 65.24,17.41 15.63,12.71 22.7,30.39 22.7,52.24 0,25.8 -10.62,45.97 -28.06,57.9zm138.95 106.1c0.35,-0.02 0.69,-0.03 1.03,-0.06 0.76,-0.05 1.51,-0.13 2.24,-0.24 0.63,-0.09 1.24,-0.19 1.85,-0.32 0.46,-0.09 0.93,-0.2 1.38,-0.31 0.09,-0.02 0.18,-0.06 0.27,-0.08 19.79,-21.05 20.78,-70.49 20.78,-96.85 0,-6.34 -0.08,-12.69 -0.29,-19.02 -0.81,-24.29 -3.78,-64.54 -22.37,-80.47 -6.04,-5.17 -13.03,-7.25 -20.52,-7.25 -2.98,0 -5.88,0.33 -8.67,1.06 -18.99,20.5 -20,69.46 -20,96.83 0,33.51 1.88,106.75 42.89,106.75 0.47,0 0.94,-0.01 1.41,-0.03zm-679.59 -3.25l3.41 0c1.73,0 4.46,0.05 7.38,-0.12 1.02,-5.05 0.87,-11.83 0.87,-15.29l0 -178.76 -18.16 0c-0.74,0 -1.57,-0 -2.45,0.01 -0.38,1.01 -0.7,2.02 -0.98,2.96 -2.58,8.6 -4.06,18.9 -5.45,27.84l-0.5 3.2 -14.51 8.87 -24.28 0 5.34 -46.48c-1.97,0 -3.76,0.02 -5.37,0.08 -0.68,3.54 -0.76,8.47 -0.76,15.33l0 158.08c0,22.37 1.01,24.27 21.04,24.27l3.4 0 0 23.46 -14.51 8.87 -101.12 0 0 -23.46 14.51 -8.87 3.4 0c2.12,0 4.01,-0.02 5.72,-0.09 0.71,-3.54 0.8,-8.47 0.8,-15.32l0 -158.08c0,-22.57 -0.89,-24.27 -21.04,-24.27l-3.4 0 0 -23.79 14.51 -8.87 268.52 0 7.76 70.26 -14.51 8.87 -23.97 0 -0.49 -3.21c-1.37,-8.96 -2.87,-19.32 -5.49,-27.91 -1.06,-3.48 -2.65,-7.83 -5.59,-9.79 -3.19,-2.13 -9,-1.97 -12.59,-1.97l-3.36 0 0 169.89c0,4.84 -0.33,16.52 2.76,20.35 3.45,4.27 15.4,3.93 20.01,3.93l3.4 0 0 23.46 -14.51 8.87 -104.29 0 0 -23.46 14.51 -8.87zm288.83 -194.8c-0.08,2.55 -0.06,4.85 -0.06,5.57l0 79.91 11.26 0c5.01,0 9.45,-0.56 13.35,-1.66 7.22,-8.2 10.14,-20.93 10.14,-37.31 0,-14.15 -2.3,-31 -13.17,-39.85 -6.3,-5.13 -13.96,-6.48 -21.52,-6.66zm37.1 422.92l25.81 0 -13.49 -50.59 -12.32 50.59zm140.99 -341.37l0 -73.7c0,-1.03 -0.04,-4.43 0.08,-7.88 9.04,0.03 17.7,2.15 24.09,9.9 7.26,8.81 9.43,21.65 9.43,33.35 0,16.34 -2.77,28.65 -9.66,36.59 -4.09,1.14 -8.77,1.72 -14.12,1.72l-9.82 0zm247.2 138.07l14.51 -8.87c7.33,-4.48 14.13,-10.37 20.22,-17.99 21.51,-26.89 27.05,-66.38 27.05,-101.45 0,-72.73 -25.6,-131.52 -97.43,-131.52 -19.65,0 -35.81,4.5 -48.91,12.5l-14.51 8.87c-34.66,21.18 -47.95,66.92 -47.95,119.02 0,35.09 5.56,74.53 27.05,101.45 18.43,23.08 43.28,30.4 69.8,30.4 17.99,0 35.19,-3.26 50.16,-12.41zm-397.52 238.89l44.71 0 8.54 34.01c0.63,2.13 1.4,4.96 1.82,7.58l-14.07 8.6 0 23.46 138.09 0 14.51 -8.87 0 -23.46 -3.4 0c-1.63,0 -10.4,0.26 -10.4,-3 0,-3.79 4.64,-11.16 6.52,-14.06l19.67 -32.6 17.62 35.82c1.62,3.28 4.94,9.91 6.36,15.04l-12.55 7.67 0 23.46 95.08 0 14.51 -8.87 0 -23.46 -3.4 0c-2.88,0 -6.01,-0.13 -8.74,-1.26 -7.65,-3.16 -14.94,-18.18 -18.81,-25.64l-43.46 -87.45 47.59 -74.24c1.52,-2.2 3.87,-5.8 6.47,-9.18l2.96 0 14.51 -8.87 0 -23.78 -65.18 0 -14.51 8.87 0 23.79 3.4 0c2.33,0 9.82,-0.26 9.82,3.98 0,3.75 -3.59,9.89 -5.41,12.82l-17.91 28.81 -16.44 -34.35c-1.28,-2.68 -4.15,-8.54 -5.49,-13.01l11.65 -7.12 0 -23.78 -92.21 0 -14.51 8.87 0 23.79 3.4 0c2.88,0 6.28,0.04 9,1.21 6.24,2.69 12.21,14.95 15.38,21.1l42.04 87.41 -50.19 77.87c-1.62,2.45 -3.92,6.05 -6.52,9.44 -0.31,-0.12 -0.61,-0.26 -0.91,-0.43 -4.69,-2.65 -7.85,-14.27 -9.34,-19.42l-62.31 -214.42 -33.46 0 -14.51 8.87 -57.95 219.1c-0.53,2.02 -1.24,4.57 -2.2,7.03 -4.61,-0.05 -11.31,-0.47 -13.82,-3.37 -3.25,-3.76 -2.93,-16.04 -2.93,-20.9l0 -157.75c0,-3.34 -0.17,-10.41 0.78,-15.71 1.57,-0.04 2.98,-0.03 4.02,-0.03l3.4 0 14.51 -8.87 0 -23.78 -75.06 0 -14.51 8.87 -48.36 145.8 -52.05 -154.67 -74.18 0 -14.51 8.87 0 23.79 3.4 0c3.92,0 13.2,-0.2 16.21,3.3 3.11,3.62 2.82,15.32 2.82,19.99l0 159.06c0,3.35 0.15,10.2 -0.82,15.38 -1.31,0.03 -2.49,0.02 -3.41,0.02l-3.41 0 -14.51 8.87 0 23.46 69.2 0 14.51 -8.87 0 -23.46 -3.41 0c-3.77,0 -11.84,0.12 -14.78,-3.15 -3.39,-3.77 -3.1,-16.19 -3.1,-21.12l0 -80 46.74 138.57 19.35 0 14.51 -8.87 46.17 -137.36 0 96.53c0,3.33 0.16,10.2 -0.78,15.37 -1.57,0.04 -2.98,0.03 -4.02,0.03l-3.4 0 -14.51 8.87 0 23.46 147.87 0 14.51 -8.87 0 -23.46 -3.4 0c-1.9,0 -8.14,0.03 -9.51,-1.86 -0.54,-0.74 -0.61,-2.19 -0.61,-3.1 0,-4.68 1.39,-10.85 2.47,-15.35l4.8 -21.01z"/>
   <path class="fil0" d="M684.37 968.89l2.5 0c2.06,0 4.35,-0.2 6.21,-1.29 4.12,-2.41 6.27,-9.96 7.5,-14.61l57.95 -219.1 33.46 0 62.31 214.42c1.49,5.15 4.65,16.77 9.34,19.42 1.02,0.57 2.14,0.85 3.26,1 0.74,-0.1 1.47,-0.25 2.18,-0.49 6.07,-2.02 12.93,-13 16.5,-18.39l50.19 -77.87 -42.04 -87.41c-3.18,-6.14 -9.14,-18.4 -15.38,-21.1 -2.72,-1.18 -6.12,-1.21 -9,-1.21l-3.4 0 0 -23.78 92.21 0 0 23.78 -3.4 0c-1.63,0 -7.58,0.06 -8.67,1.83 -0.25,0.39 -0.29,1.04 -0.29,1.5 0,4.08 4.49,13.24 6.2,16.8l20.35 42.52 28.51 -45.85c1.82,-2.93 5.41,-9.06 5.41,-12.82 0,-4.24 -7.5,-3.98 -9.82,-3.98l-3.4 0 0 -23.78 65.18 0 0 23.78 -3.4 0c-1.81,0 -3.72,0.11 -5.44,0.78 -5.16,2.01 -11.93,12.68 -15.1,17.26l-47.59 74.24 43.46 87.45c3.86,7.46 11.16,22.48 18.81,25.64 2.73,1.13 5.86,1.26 8.74,1.26l3.4 0 0 23.46 -95.08 0 0 -23.46 3.4 0c1.86,0 8.36,-0.1 9.55,-2.22 0.23,-0.41 0.28,-0.97 0.28,-1.43 0,-4.94 -4.95,-14.81 -7.04,-19.05l-21.74 -44.18 -30.03 49.77 -0.04 0.06c-1.89,2.9 -6.52,10.27 -6.52,14.06 0,3.26 8.76,3 10.4,3l3.4 0 0 23.46 -138.09 0 0 -23.46 3.4 0c2.24,0 8.99,-0.06 10.46,-2.58 0.44,-0.75 0.52,-1.84 0.52,-2.71 0,-3.27 -1.22,-7.8 -2.13,-10.89l-0.04 -0.16 -8.5 -33.85 -57.2 0 -6.82 29.87c-1.08,4.5 -2.47,10.67 -2.47,15.35 0,0.91 0.07,2.36 0.61,3.1 1.37,1.89 7.61,1.86 9.51,1.86l3.4 0 0 23.46 -147.86 0 0 -23.46 3.4 0c4.01,0 13.41,0.19 16.47,-3.42 3.19,-3.76 2.84,-16.02 2.84,-20.85l0 -130.85 -60.68 180.54 -19.34 0 -61.26 -181.59 0 131.89c0,4.93 -0.29,17.35 3.1,21.12 2.93,3.27 11.01,3.15 14.78,3.15l3.41 0 0 23.46 -69.21 0 0 -23.46 3.41 0c3.92,0 12.75,0.16 15.77,-3.32 3.28,-3.77 2.96,-16.07 2.96,-20.96l0 -159.06c0,-4.67 0.29,-16.37 -2.82,-19.99 -3.01,-3.51 -12.28,-3.3 -16.21,-3.3l-3.4 0 0 -23.78 74.18 0 57.88 171.99 57.04 -171.99 75.06 0 0 23.78 -3.41 0c-3.96,0 -13.4,-0.22 -16.44,3.31 -3.24,3.75 -2.87,16.45 -2.87,21.3l0 157.75c0,4.86 -0.32,17.14 2.93,20.9 2.6,3.01 9.72,3.35 14.33,3.38zm-298.98 -535.45l168.45 0 7.76 70.26 -23.97 0 -0.49 -3.21c-1.37,-8.96 -2.87,-19.32 -5.49,-27.91 -1.06,-3.48 -2.65,-7.83 -5.59,-9.79 -3.19,-2.13 -9,-1.97 -12.59,-1.97l-17.88 0 0 178.76c0,4.84 -0.33,16.52 2.76,20.35 3.45,4.27 15.4,3.93 20.01,3.93l3.4 0 0 23.46 -104.28 0 0 -23.46 3.41 0c4.64,0 16.42,0.33 19.91,-3.94 3.15,-3.86 2.85,-15.43 2.85,-20.33l0 -178.76 -18.16 0c-3.56,0 -9.29,-0.14 -12.43,2 -2.9,1.97 -4.47,6.37 -5.51,9.83 -2.58,8.6 -4.06,18.9 -5.45,27.84l-0.5 3.2 -24.27 0 5.34 -46.48c-19.77,0.02 -20.65,1.85 -20.65,24.28l0 158.08c0,22.37 1.01,24.27 21.04,24.27l3.4 0 0 23.46 -101.12 0 0 -23.46 3.4 0c20.03,0 21.04,-1.91 21.04,-24.27l0 -158.08c0,-22.57 -0.89,-24.28 -21.04,-24.28l-3.4 0 0 -23.78 100.07 0zm320.84 147.83l0 58.31c0,4.78 -0.36,16.63 2.67,20.41 3.37,4.21 15.29,3.86 19.8,3.86l3.4 0 0 23.46 -101.41 0 0 -23.46 3.41 0c19.44,0 20.18,-2.56 20.18,-24.27l0 -158.08c0,-21.91 -0.64,-24.28 -20.18,-24.28l-3.41 0 0 -23.78 91.68 0c21.47,0 45.6,1.85 63.54,16.78 15.55,12.94 22.67,33.27 22.67,54.84 0,22.3 -5.68,43.26 -21.71,57.05 -19.15,17.16 -45.68,19.16 -69.1,19.16l-11.55 0zm235.62 -12.21l35.84 73.55c3.32,6.82 8.79,18.04 15.94,20.41 2.22,0.74 4.66,0.83 6.97,0.83l3.4 0 0 23.46 -61.85 0 -48.88 -109.97 -8.88 0 0 62.24c0,4.55 -0.41,18.12 2.72,21.57 2.64,2.91 10.92,2.7 14.29,2.7l3.4 0 0 23.46 -95.94 0 0 -23.46 3.4 0c4.15,0 13.73,0.19 16.91,-3.53 3.3,-3.86 2.97,-16.11 2.97,-21.08l0 -157.75c0,-4.86 0.32,-17.07 -2.92,-20.84 -3.14,-3.66 -12.86,-3.43 -16.97,-3.43l-3.4 0 0 -23.78 89.38 0c22.63,0 46.24,1.97 65.24,17.41 15.63,12.71 22.7,30.39 22.7,52.24 0,33.06 -17.43,56.89 -44.32,65.96zm154.08 123.16c-26.53,0 -51.37,-7.32 -69.8,-30.4 -21.5,-26.91 -27.05,-66.36 -27.05,-101.45 0,-71.79 25.23,-131.52 96.86,-131.52 71.83,0 97.43,58.79 97.43,131.52 0,35.07 -5.54,74.56 -27.05,101.45 -18.52,23.15 -43.57,30.39 -70.37,30.39zm-389.7 -137.68l11.26 0c28.18,0 38,-17.79 38,-47.84 0,-14.15 -2.3,-31 -13.17,-39.85 -6.82,-5.55 -15.24,-6.68 -23.4,-6.68l-9.49 0c-0.41,0 -1.55,0.03 -1.91,0.33 -1.38,1.15 -1.3,12.36 -1.3,14.13l0 79.91zm178.15 -3.93l9.82 0c28.54,0 38.29,-16.48 38.29,-47.18 0,-11.7 -2.17,-24.54 -9.43,-33.35 -6.43,-7.8 -15.16,-9.9 -24.26,-9.9l-10.35 0c-0.61,0 -2.14,0.03 -2.65,0.49 -1.62,1.44 -1.42,14.1 -1.42,16.25l0 73.7zm211.55 -96.99c-7.4,0 -14.31,2.05 -20.29,7.12 -21.79,18.47 -22.89,70.94 -22.89,99.64 0,33.51 1.88,106.75 42.89,106.75 41.82,0 43.47,-72.67 43.47,-106.75 0,-6.34 -0.08,-12.69 -0.29,-19.02 -0.81,-24.29 -3.78,-64.54 -22.37,-80.47 -6.04,-5.18 -13.03,-7.26 -20.52,-7.26zm-352.55 438.35l42.69 0 -22.32 -83.66 -20.37 83.66z"/>
   <path class="fil1" d="M288.73 683.44m0 0l94.32 0 0 -15.71c-22.43,0 -24.44,-3.93 -24.44,-28.15l0 -158.08c0,-24.55 2.01,-28.15 24.44,-28.15l0 -16.04 -94.32 0 0 16.04c22.43,0 24.44,3.6 24.44,28.15l0 158.08c0,24.22 -2.01,28.15 -24.44,28.15l0 15.71z"/>
   <path class="fil1" d="M381.2 683.44m132.28 -226.49c17.54,0 20.7,1.64 27.03,42.88l17.25 0 -6.9 -62.51 -162.47 0 -7.19 62.51 17.54 0c6.33,-40.91 9.2,-42.88 26.74,-42.88l21.57 0 0 182.63c0,24.55 -2.01,28.15 -26.17,28.15l0 15.71 97.48 0 0 -15.71c-24.44,0 -26.17,-3.6 -26.17,-28.15l0 -182.63 21.28 0z"/>
   <path class="fil1" d="M634.12 683.44m0 0l94.61 0 0 -15.71c-24.44,0 -25.88,-3.6 -25.88,-28.15l0 -62.19 14.95 0c35.08,0 53.49,-6.22 67,-18.33 14.09,-12.11 20.42,-30.77 20.42,-54 0,-22.58 -8.05,-40.58 -21.28,-51.71 -13.51,-11.13 -31.34,-16.04 -61.54,-16.04l-88.28 0 0 16.04c21.28,0 23.58,3.6 23.58,28.15l0 158.08c0,24.22 -2.3,28.15 -23.58,28.15l0 15.71zm68.73 -125.03l0 -83.79c0,-15.06 0.86,-18.33 6.61,-18.33l9.49 0c14.38,0 39.97,2.94 39.97,50.4 0,30.11 -9.78,51.71 -41.41,51.71l-14.67 0z"/>
   <path class="fil1" d="M812.28 683.44m0 -246.13l0 16.04c21.28,0 23.29,3.6 23.29,28.15l0 157.76c0,24.55 -2.01,28.48 -23.29,28.48l0 15.71 89.14 0 0 -15.71c-18.98,0 -20.42,-2.95 -20.42,-28.15l0 -66.11 14.38 0 48.88 109.97 56.36 0 0 -15.71c-10.06,0 -15.53,-2.29 -25.88,-23.24l-37.96 -77.9c32.78,-8.84 46.01,-36.33 46.01,-63.5 0,-23.24 -8.34,-38.62 -21.28,-49.09 -15.24,-12.44 -33.93,-16.69 -63.26,-16.69l-85.98 0zm86.56 18.98c12.36,0 20.7,3.93 26.74,11.13 6.9,8.51 10.35,20.95 10.35,36 0,30.11 -9.2,51.06 -41.7,51.06l-13.23 0 0 -77.57c0,-17.02 0.58,-20.62 7.48,-20.62l10.35 0z"/>
   <path class="fil1" d="M1002.52 683.44m93.46 4.91c28.76,0 51.47,-8.51 67.86,-29.13 15.81,-19.64 26.17,-51.06 26.17,-98.84 0,-47.79 -11.21,-127.64 -94.03,-127.64 -76.2,0 -93.46,69.06 -93.46,127.64 0,47.79 10.35,79.21 26.17,98.84 18.69,23.57 44,29.13 67.29,29.13zm0 -238.6c41.41,0 46.58,59.24 46.58,110.63 0,47.79 -5.46,110.63 -46.87,110.63 -40.26,0 -46.3,-62.19 -46.3,-110.63 0,-51.71 5.46,-110.63 46.59,-110.63z"/>
   <path class="fil1" d="M429.07 988.47m129.11 -68.41l-0.86 0 -59.81 -177.72 -68.44 0 0 16.04c20.42,0 22.43,3.6 22.43,27.17l0 159.06c0,24.22 -2.01,28.15 -22.14,28.15l0 15.71 62.4 0 0 -15.71c-18.98,0 -21.28,-3.93 -21.28,-28.15l0 -150.23 0.86 0 66.14 196.05 14.67 0 65.56 -195.07 0.86 0 0 149.25c0,24.22 -1.72,28.15 -22.72,28.15l0 15.71 90.87 0 0 -15.71c-20.99,0 -23,-3.6 -23,-28.15l0 -157.76c0,-24.87 1.73,-28.48 22.72,-28.48l0 -16.04 -69.3 0 -58.95 177.72z"/>
   <path class="fil1" d="M686.89 988.47m118.19 -36.99c1.44,4.91 2.3,9.16 2.3,12.11 0,6.55 -3.74,9.16 -14.38,9.16l0 15.71 76.78 0 0 -15.71c-9.49,0 -12.94,-3.6 -18.69,-23.24l-61.54 -211.76 -28.47 0 -57.22 216.34c-4.03,15.06 -8.34,18.65 -16.97,18.65l0 15.71 50.04 0 0 -15.71c-9.78,0 -13.52,-1.64 -13.52,-8.84 0,-3.6 0.86,-9.16 2.59,-16.37l7.48 -32.73 62.4 0 9.2 36.66zm-66.14 -55.64l24.16 -99.17 1.15 0 26.46 99.17 -51.76 0z"/>
   <path class="fil1" d="M864.18 988.47m111 -44.19c4.89,9.82 7.48,16.36 7.48,20.95 0,5.57 -4.31,7.53 -13.23,7.53l0 15.71 88.28 0 0 -15.71c-12.65,0 -17.25,-3.27 -30.48,-28.8l-44.57 -89.68 48.89 -76.26c11.5,-16.69 14.38,-19.64 23.29,-19.64l0 -16.04 -58.37 0 0 16.04c8.91,0 13.23,2.29 13.23,7.86 0,3.6 -2.01,8.51 -6.04,15.06l-31.34 50.4 -0.57 0 -22.72 -47.46c-4.31,-8.84 -6.61,-14.73 -6.61,-18.65 0,-5.57 4.03,-7.2 12.36,-7.2l0 -16.04 -85.4 0 0 16.04c12.08,0 15.81,1.97 27.32,24.22l43.13 89.68 -51.47 79.86c-11.5,17.35 -15.53,20.62 -24.16,20.62l0 15.71 60.1 0 0 -15.71c-8.91,0 -13.8,-1.64 -13.8,-6.87 0,-3.6 2.3,-8.84 7.19,-16.37l32.78 -54.33 0.58 0 24.15 49.09z"/>
   <path class="fil2" d="M1163.84 659.22c15.81,-19.64 26.17,-51.06 26.17,-98.84 0,-47.79 -11.21,-127.64 -94.03,-127.64 -76.2,0 -93.46,69.06 -93.46,127.64 0,47.79 10.35,79.21 26.17,98.84 18.69,23.57 44,29.13 67.29,29.13 28.76,0 51.47,-8.51 67.86,-29.13zm-67.86 -209.47c41.41,0 46.58,59.24 46.58,110.63 0,47.79 -5.46,110.63 -46.87,110.63 -40.26,0 -46.3,-62.19 -46.3,-110.63 0,-51.71 5.46,-110.63 46.59,-110.63z"/>
   <path class="fil2" d="M936.79 566.6c32.78,-8.84 46.01,-36.33 46.01,-63.5 0,-23.24 -8.34,-38.62 -21.28,-49.09 -15.24,-12.44 -33.93,-16.69 -63.26,-16.69l-85.98 0 0 16.04c21.28,0 23.29,3.6 23.29,28.15l0 157.76c0,24.55 -2.01,28.48 -23.29,28.48l0 15.71 89.14 0 0 -15.71c-18.98,0 -20.42,-2.95 -20.42,-28.15l0 -66.11 14.38 0 48.88 109.97 56.36 0 0 -15.71c-10.06,0 -15.53,-2.29 -25.88,-23.24l-37.96 -77.9zm-11.22 -99.17c6.9,8.51 10.35,20.95 10.35,36 0,30.11 -9.2,51.06 -41.7,51.06l-13.23 0 0 -77.57c0,-17.02 0.58,-20.62 7.48,-20.62l10.35 0c12.36,0 20.7,3.93 26.74,11.13z"/>
   <path class="fil2" d="M784.8 559.07c14.09,-12.11 20.42,-30.77 20.42,-54 0,-22.58 -8.05,-40.58 -21.28,-51.71 -13.51,-11.13 -31.34,-16.04 -61.54,-16.04l-88.28 0 0 16.04c21.28,0 23.58,3.6 23.58,28.15l0 158.08c0,24.22 -2.3,28.15 -23.58,28.15l0 15.71 94.61 0 0 -15.71c-24.44,0 -25.88,-3.6 -25.88,-28.15l0 -62.19 14.95 0c35.08,0 53.49,-6.22 67,-18.33zm-25.88 -52.37c0,30.11 -9.78,51.71 -41.41,51.71l-14.67 0 0 -83.79c0,-15.06 0.86,-18.33 6.61,-18.33l9.49 0c14.38,0 39.97,2.94 39.97,50.4z"/>
   <path class="fil2" d="M492.19 456.95l21.28 0c17.54,0 20.7,1.64 27.03,42.88l17.25 0 -6.9 -62.51 -162.47 0 -7.19 62.51 17.54 0c6.33,-40.91 9.2,-42.88 26.74,-42.88l21.57 0 0 182.63c0,24.55 -2.01,28.15 -26.17,28.15l0 15.71 97.48 0 0 -15.71c-24.44,0 -26.17,-3.6 -26.17,-28.15l0 -182.63z"/>
   <path class="fil2" d="M383.05 453.35l0 -16.04 -94.32 0 0 16.04c22.43,0 24.44,3.6 24.44,28.15l0 158.08c0,24.22 -2.01,28.15 -24.44,28.15l0 15.71 94.32 0 0 -15.71c-22.43,0 -24.44,-3.93 -24.44,-28.15l0 -158.08c0,-24.55 2.01,-28.15 24.44,-28.15z"/>
  </g>
  <path class="fil3" d="M716.02 0c-285.66,0 -532.25,167.28 -647.15,409.23l123.61 44.46c96.2,-191.62 294.52,-323.13 523.54,-323.13 212.89,0 399.24,113.63 501.71,283.55l118.64 -55.87c-123.77,-214.14 -355.24,-358.23 -620.35,-358.23zm-375.27 1165.41c-128.47,-107.39 -210.2,-268.85 -210.2,-449.4 0,-52.83 7,-104.02 20.11,-152.7l-123.22 -44.32c-17.88,62.59 -27.45,128.69 -27.45,197.02 0,224.97 103.76,425.72 266.03,556.98l74.72 -107.58zm960.73 -449.4c0,152.85 -58.58,292.03 -154.51,396.3l84.84 100.33c123.98,-128.74 200.22,-303.78 200.22,-496.63 0,-88.59 -16.09,-173.43 -45.51,-251.74l-118.62 55.86c21.74,61.24 33.57,127.18 33.57,195.88zm-242.18 474.31c-96.44,69.92 -215.05,111.15 -343.29,111.15 -100.69,0 -195.44,-25.42 -278.19,-70.19l-74.87 107.79c104.19,59.17 224.68,92.95 353.05,92.95 160.37,0 308.43,-52.72 427.78,-141.78l-84.5 -99.93z"/>
 </g>
</svg>
